<mxfile host="app.diagrams.net" modified="2023-10-19T17:47:03.124Z" agent="Mozilla/5.0 (Windows NT 10.0; Win64; x64) AppleWebKit/537.36 (KHTML, like Gecko) Chrome/118.0.0.0 Safari/537.36" version="22.0.5" etag="9xOZouFcr2mm5j3ojZth" type="github">
  <diagram name="PÃ¡gina-1" id="fEAabpb7jmeiBWqdCGvv">
    <mxGraphModel>
      <root>
        <mxCell id="0" />
        <mxCell id="1" parent="0" />
      </root>
    </mxGraphModel>
  </diagram>
</mxfile>
